# xmcd
#
# Track frame offsets:
#	150
#	17684
#	33977
#	50477
#	67046
#	83317
#	98876
#	115416
#	129120
#	143976
#	157305
#	173044
#	188005
#	207340
#	224160
#	243290
#	260596
#	273337
#	286831
#
# Disc length: 4000 seconds
#
# Revision: 1
# Processed by: cddbd v1.5.2PL0 Copyright (c) Steve Scherf et al.
# Submitted via: audiograbber 1.83.01
#
DISCID=160f9e13
DTITLE=Various Artist - Hott Country 192
DYEAR=2012
DGENRE=Country
TTITLE0=Dean Brody - Canadian Girls
TTITLE1=Jason Aldean - Fly Over States
TTITLE2=Jana Kramer - Why Ya Wanna
TTITLE3=High Valley - Have I Told You I Love You Lately
TTITLE4=Aaron Pritchett - I Want To Be In It With You
TTITLE5=Wade Bowen - Saturday Night
TTITLE6=Alan Jackson - So You Don't Have To Love Me Anymore
TTITLE7=Codie Prevost - Finish What You Started
TTITLE8=Craig Campbell - When I Get It
TTITLE9=Josh Thompson - Comin' Around
TTITLE10=Her and Kings Country - White Trash (Country Boy )
TTITLE11=Josh Turner - Time Is Love
TTITLE12=Kenny Chesney - Seven Days
TTITLE13=Dustin Lynch - Cowboys And Angels
TTITLE14=Jason Kirkness - I Play The Music
TTITLE15=Chris Cagle - Got My Countrry On
TTITLE16=JT Hodges - Goodbyes Made You Mine
TTITLE17=Stellas - Love Hurts
TTITLE18=Lady Antebellum - Friday Night
EXTD=February 2012
EXTT0=
EXTT1=
EXTT2=
EXTT3=
EXTT4=
EXTT5=
EXTT6=
EXTT7=
EXTT8=
EXTT9=
EXTT10=
EXTT11=
EXTT12=
EXTT13=
EXTT14=
EXTT15=
EXTT16=
EXTT17=
EXTT18=
PLAYORDER=
